<svg xmlns="http://www.w3.org/2000/svg" width="20" height="20" fill="none"><path fill="currentColor" fill-rule="evenodd" d="M10 2.5c.46 0 .833.373.833.833v6.739l1.494-1.495a.833.833 0 1 1 1.179 1.179l-2.917 2.917a.833.833 0 0 1-1.178 0L6.494 9.756a.833.833 0 1 1 1.179-1.179l1.494 1.495V3.333c0-.46.373-.833.833-.833m-6.667 9.167c.46 0 .834.373.834.833v3.333h11.666V12.5a.833.833 0 0 1 1.667 0v4.167c0 .46-.373.833-.833.833H3.333a.833.833 0 0 1-.833-.833V12.5c0-.46.373-.833.833-.833" clip-rule="evenodd"></path></svg>